<?xml version="1.0" encoding="UTF-8"?>
<svg version="1.0" viewBox="0 0 24 24" xmlns="http://www.w3.org/2000/svg">
    <path d="M11.055 22.656c-.517-.644-1.806-1.9-2.866-2.789-3.14-2.637-3.568-3.02-4.843-4.326C.996 13.134-.004 10.716 0 7.436c.002-1.6.1-2.217.503-3.162.684-1.6 1.691-2.79 2.98-3.518C4.395.24 4.844.012 6.368.003c1.593-.01 1.929.196 2.866.77 1.141.696 2.315 2.186 2.558 3.245l.15.654.37-.9c2.09-5.088 8.76-5.013 11.08.126.737 1.63.818 5.11.165 7.07-.852 2.556-2.452 4.506-6.15 7.494-2.426 1.958-5.17 4.922-5.362 5.34-.222.482-.01.074-.99-1.146z"/>
</svg>
